# AST/ASF file generated using VICON BodyLanguage
# -----------------------------------------------
:version 1.10
:name VICON
:units
  mass 1.0
  length 0.45
  angle deg
:documentation
   .ast/.asf automatically generated from VICON data using
   VICON BodyBuilder and BodyLanguage model FoxedUp or BRILLIANT.MOD
:root
   order TX TY TZ RX RY RZ
   axis XYZ
   position 0 0 0  
   orientation 0 0 0 
:bonedata
  begin
     id 1 
     name lhipjoint
     direction 0.558404 -0.748506 0.357664 
     length 2.4234 
     axis 0 0 0  XYZ
  end
  begin
     id 2 
     name lfemur
     direction 0.34202 -0.939693 0  
     length 7.14567  
     axis 0 0 20  XYZ
    dof rx ry rz
    limits (-160.0 20.0)
           (-70.0 70.0)
           (-60.0 70.0)
  end
  begin
     id 3 
     name ltibia
     direction 0.34202 -0.939693 0   
     length 8.13956   
     axis 0 0 20   XYZ
    dof rx
    limits (-10.0 170.0)
  end
  begin
     id 4 
     name lfoot
     direction 0.0791314 -0.217412 0.972867   
     length 2.00134   
     axis -90 7.62852e-016 20   XYZ
    dof rx rz
    limits (-45.0 90.0)
           (-70.0 20.0)
  end
  begin
     id 5 
     name ltoes
     direction 1.53547e-011 -4.21922e-011 1   
     length 1.00735   
     axis -90 7.62852e-016 20   XYZ
    dof rx
    limits (-90.0 20.0)
  end
  begin
     id 6 
     name rhipjoint
     direction -0.496392 -0.78327 0.374276   
     length 2.31584  
     axis 0 0 0  XYZ 
  end
  begin
     id 7 
     name rfemur
     direction -0.34202 -0.939693 0   
     length 7.47417   
     axis 0 0 -20   XYZ
    dof rx ry rz
    limits (-160.0 20.0)
           (-70.0 70.0)
           (-70.0 60.0)
  end
  begin
     id 8 
     name rtibia
     direction -0.34202 -0.939693 0   
     length 7.69071   
     axis 0 0 -20   XYZ
    dof rx
    limits (-10.0 170.0)
 end
 begin
     id 9 
     name rfoot
     direction -0.103069 -0.28318 0.953512   
     length 2.16135  
     axis -90 -7.62852e-016 -20   XYZ
    dof rx rz
    limits (-45.0 90.0)
           (-20.0 70.0)
  end
  begin
     id 10 
     name rtoes
     direction -1.53581e-011 -4.21904e-011 1   
     length 1.07867   
     axis -90 -7.62852e-016 -20   XYZ
    dof rx
    limits (-90.0 20.0)
  end
  begin
     id 11 
     name lowerback
     direction -0.0258961 0.994776 -0.0987407   
     length 2.19412   
     axis 0 0 0   XYZ
    dof rx ry rz
    limits (-20.0 45.0)
           (-30.0 30.0)
           (-30.0 30.0)
  end
  begin
     id 12 
     name upperback
     direction 0.0402454 0.999185 0.00320666   
     length 2.18445   
     axis 0 0 0   XYZ
    dof rx ry rz
    limits (-20.0 45.0)
           (-30.0 30.0)
           (-30.0 30.0)
  end
  begin
     id 13 
     name thorax
     direction 0.0519376 0.997415 0.0496558   
     length 2.21487   
     axis 0 0 0   XYZ
    dof rx ry rz
    limits (-20.0 45.0)
           (-30.0 30.0)
           (-30.0 30.0)
  end
  begin
     id 14 
     name lowerneck
     direction -0.0921276 0.983211 0.157506   
     length 1.61201   
     axis 0 0 0   XYZ
    dof rx ry rz
    limits (-20.0 45.0)
           (-30.0 30.0)
           (-30.0 30.0)
  end
  begin
     id 15 
     name upperneck
     direction 0.0820814 0.98162 -0.172292   
     length 1.65275   
     axis 0 0 0   XYZ
    dof rx ry rz
    limits (-20.0 45.0)
           (-30.0 30.0)
           (-30.0 30.0)
  end
  begin
     id 16
     name head
     direction 0.0336554 0.996413 -0.0776455  
     length 1.66415  
     axis 0 0 0   XYZ
    dof rx ry rz
    limits (-20.0 45.0)
           (-30.0 30.0)
           (-30.0 30.0)
  end
  begin
     id 17 
     name lclavicle
     direction 0.94696 0.284418 -0.149576  
     length 3.41447  
     axis 0 0 0   XYZ
    dof ry rz
    limits (-20.0 10.0)
           (0.0 20.0)
  end
  begin
     id 18 
     name lhumerus
     direction 1 -0.000130264 -9.81312e-005   
     length 5.19964   
     axis 180 -30 -90   XYZ
    dof rx ry rz
    limits (-60.0 90.0)
           (-90.0 90.0)
           (-90.0 90.0)
  end
  begin
     id 19
     name lradius
     direction 1 -4.48961e-011 1.43854e-026   
     length 3.32189   
     axis 180 -30 -90   XYZ
    dof rx
    limits (-10.0 170.0)
  end
  begin
     id 20
     name lwrist
     direction 1 -4.48958e-011 3.1502e-026   
     length 1.66095   
     axis -1.97692e-014 90 90   XYZ
    dof ry
    limits (-180.0 0.0)
 end
  begin
     id 21 
     name lhand
     direction 1 -4.48927e-011 6.3004e-026   
     length 0.645616   
     axis -4.02019e-014 90 90   XYZ
    dof rx rz
    limits (-90.0 90.0)
           (-45.0 45.0)
  end
  begin
     id 22 
     name lfingers
     direction 1 -4.4904e-011 1.26008e-025   
     length 0.520512   
     axis -8.04039e-014 90 90   XYZ
    dof rx
    limits (0.0 90.0)
  end
  begin
     id 23
     name lthumb
     direction 0.707107 -6.34947e-011 0.707107   
     length 0.747354   
     axis -90 45 2.85299e-015   XYZ
    dof rx rz
    limits (-45.0 45.0)
           (-45.0 45.0)
  end
  begin
     id 24 
     name rclavicle
     direction -0.909391 0.383475 -0.161107   
     length 3.25176  
     axis 0 0 0   XYZ 
    dof ry rz
    limits (-10.0 20.0)
           (-20.0 0.0)
  end
  begin
     id 25 
     name rhumerus
     direction -1 -4.48965e-011 -1.81384e-027  
     length 5.6595   
     axis 180 30 90   XYZ
    dof rx ry rz
    limits (-90.0 60.0)
           (-90.0 90.0)
           (-90.0 90.0)
  end
  begin
     id 26 
     name rradius
     direction -1 -4.48996e-011 -8.09397e-027   
     length 3.37604   
     axis 180 30 90   XYZ
    dof rx
    limits (-10.0 170.0)
  end
  begin
     id 27 
     name rwrist
     direction -1 -4.48927e-011 -1.56669e-026   
     length 1.68802   
     axis 1.21142e-014 -90 -90   XYZ
    dof ry
    limits (-180.0 0.0)
  end
  begin
     id 28
     name rhand
     direction -1 -4.48912e-011 -3.13339e-026   
     length 0.824702   
     axis 1.99937e-014 -90 -90   XYZ
    dof rx rz
    limits (-90.0 90.0)
           (-45.0 45.0)
  end
  begin
     id 29
     name rfingers
     direction -1 -4.49011e-011 -6.26677e-026   
     length 0.664896   
     axis 3.99874e-014 -90 -90   XYZ
    dof rx
    limits (0.0 90.0)
  end
  begin
     id 30
     name rthumb
     direction -0.707107 -6.34931e-011 0.707107   
     length 0.954662   
     axis -90 -45 -2.85299e-015   XYZ
    dof rx rz
    limits (-45.0 45.0)
           (-45.0 45.0)
  end
:hierarchy
  begin
    root lhipjoint rhipjoint lowerback
    lhipjoint lfemur
    lfemur ltibia
    ltibia lfoot
    lfoot ltoes
    rhipjoint rfemur
    rfemur rtibia
    rtibia rfoot
    rfoot rtoes
    lowerback upperback
    upperback thorax
    thorax lowerneck lclavicle rclavicle
    lowerneck upperneck
    upperneck head
    lclavicle lhumerus
    lhumerus lradius
    lradius lwrist
    lwrist lhand lthumb
    lhand lfingers
    rclavicle rhumerus
    rhumerus rradius
    rradius rwrist
    rwrist rhand rthumb
    rhand rfingers
  end

#!OML:ASF F:\VICON\USERDATA\INSTALL\rory3\rory3.ASF
:FULLY-SPECIFIED
:DEGREES
451
root 10.6422 17.7767 -14.4316 8.14458 -47.7896 -3.01
lowerback 7.07082 -1.64135 -6.29639
upperback 2.28112 -2.59184 3.04941
thorax -1.16764 -1.33977 6.93721
lowerneck -9.84992 0.0284194 -11.9251
upperneck 27.3366 -1.30976 12.5204
head 10.4144 -0.581469 6.46414
rclavicle -2.28478e-014 -1.93318e-014
rhumerus -40.1487 -26.2854 -63.0311
rradius 29.5362
rwrist -9.99889
rhand -10.8424 16.549
rfingers 7.12502
rthumb 15.1723 -12.8748
lclavicle -2.28478e-014 -1.93318e-014
lhumerus -12.3397 17.202 80.7753
lradius 25.7498
lwrist -9.41693
lhand -6.27772 31.1249
lfingers 7.12502
lthumb 19.5654 60.1604
rfemur -27.9144 7.27931 9.82408
rtibia 37.2089
rfoot -11.1256 1.74399
rtoes 6.72916
lfemur -18.0507 5.43425 -23.2376
ltibia 36.8992
lfoot -23.9468 16.664
ltoes 10.3988
452
root 10.6378 17.7738 -14.4083 8.14738 -48.0476 -3.0028
lowerback 7.03344 -1.64209 -6.30505
upperback 2.38901 -2.59233 2.98311
thorax -1.03723 -1.34876 6.86692
lowerneck -9.74678 0.0833131 -12.1438
upperneck 27.1224 -1.27068 12.8615
head 10.3075 -0.548467 6.62337
rclavicle 6.48846e-014 -5.03671e-014
rhumerus -39.7092 -24.6683 -64.7482
rradius 30.3721
rwrist -15.2595
rhand -13.5077 15.6187
rfingers 7.12502
rthumb 12.6037 -13.9811
lclavicle 6.48846e-014 -5.03671e-014
lhumerus -12.1253 17.7115 80.8158
lradius 25.9472
lwrist -10.4194
lhand -5.90619 30.6975
lfingers 7.12502
lthumb 19.9225 59.6963
rfemur -27.9903 7.39496 9.74509
rtibia 37.3408
rfoot -11.1493 1.86083
rtoes 10.1179
lfemur -17.9758 5.47018 -23.3408
ltibia 36.8979
lfoot -24.084 16.9007
ltoes 10.193
453
root 10.6312 17.7678 -14.3768 8.17129 -48.3793 -3.1693
lowerback 7.12304 -1.5909 -6.18682
upperback 2.46329 -2.52182 2.97134
thorax -1.02758 -1.31616 6.78402
lowerneck -9.95655 0.0594063 -12.2286
upperneck 27.2643 -1.29997 12.949
head 10.4063 -0.558858 6.68193
rclavicle -7.78615e-014 1.00386e-014
rhumerus -39.7602 -24.2576 -65.166
rradius 30.7323
rwrist -16.6409
rhand -14.3542 15.3408
rfingers 7.12502
rthumb 11.7876 -14.3075
lclavicle -7.78615e-014 1.00386e-014
lhumerus -11.9783 18.0113 80.9542
lradius 26.0926
lwrist -10.5681
lhand -5.54529 30.6105
lfingers 7.12502
lthumb 20.2694 59.5729
rfemur -27.9484 7.38755 9.86449
rtibia 37.4677
rfoot -11.1505 2.04428
rtoes 11.5156
lfemur -17.7741 5.62333 -23.3321
ltibia 36.9543
lfoot -24.3225 17.0985
ltoes 10.1318
454
root 10.6235 17.7635 -14.3481 8.3393 -48.6432 -3.51516
lowerback 7.25419 -1.55992 -5.98288
upperback 2.5015 -2.47394 3.00312
thorax -1.07661 -1.29136 6.70238
lowerneck -9.95799 0.0865298 -12.3639
upperneck 27.2823 -1.28065 13.1135
head 10.4096 -0.547593 6.77261
rclavicle -1.2424e-017 1.61513e-014
rhumerus -39.9212 -24.3756 -65.0541
rradius 30.7045
rwrist -16.1647
rhand -13.999 15.5282
rfingers 7.12502
rthumb 12.1301 -14.1002
lclavicle -1.2424e-017 1.61513e-014
lhumerus -11.7158 17.732 81.0983
lradius 26.0925
lwrist -10.0126
lhand -5.25756 31.0565
lfingers 7.12502
lthumb 20.5459 59.9892
rfemur -27.9054 7.30064 10.185
rtibia 37.5613
rfoot -11.1049 2.05153
rtoes 9.5972
lfemur -17.5943 5.67749 -23.1772
ltibia 37.0097
lfoot -24.5292 17.2871
ltoes 10.2216
455
root 10.6299 17.7696 -14.3668 8.80356 -48.0319 -3.64773
lowerback 7.39537 -1.78937 -5.93727
upperback 2.38426 -2.78285 3.00304
thorax -1.23015 -1.43579 6.70701
lowerneck -9.82034 0.158941 -12.3561
upperneck 27.1069 -1.24504 13.3515
head 10.3095 -0.506466 6.85225
rclavicle -4.79444e-014 4.08006e-014
rhumerus -39.917 -24.382 -65.3319
rradius 30.7015
rwrist -16.0578
rhand -13.6512 15.7858
rfingers 7.12502
rthumb 12.4654 -13.8225
lclavicle -4.79444e-014 4.08006e-014
lhumerus -11.2639 17.3421 81.1156
lradius 26.1229
lwrist -9.95197
lhand -4.73633 31.7249
lfingers 7.12502
lthumb 21.0467 60.6028
rfemur -28.2775 6.89174 10.4561
rtibia 37.6734
rfoot -11.0171 1.38918
rtoes 8.17933
lfemur -18.1306 5.79389 -22.9677
ltibia 37.0711
lfoot -24.1993 16.7252
ltoes 9.57859
456
root 10.6177 17.7717 -14.3346 9.02679 -48.4614 -3.93544
lowerback 7.18915 -1.67261 -5.65033
upperback 2.5262 -2.59849 2.91073
thorax -1.016 -1.35448 6.41837
lowerneck -9.72321 0.156623 -12.3788
upperneck 26.9834 -1.27131 13.4537
head 10.2483 -0.510798 6.88327
rclavicle 1.02126e-014 1.59028e-015
rhumerus -39.9542 -24.9068 -65.3551
rradius 30.6251
rwrist -15.3804
rhand -13.2178 15.9862
rfingers 7.12502
rthumb 12.8833 -13.5961
lclavicle 1.02126e-014 1.59028e-015
lhumerus -10.9202 17.0826 81.2328
lradius 26.2072
lwrist -10.0994
lhand -4.33163 32.0072
lfingers 7.12502
lthumb 21.4355 60.8413
rfemur -28.3793 6.97164 10.6752
rtibia 37.788
rfoot -10.9421 1.42396
rtoes 8.14972
lfemur -17.9771 5.67882 -22.9062
ltibia 37.0801
lfoot -24.4529 17.2922
ltoes 9.5527
457
root 10.6068 17.772 -14.3072 9.20012 -48.7418 -4.06895
lowerback 7.10686 -1.59114 -5.63558
upperback 2.56831 -2.48506 2.93384
thorax -0.943362 -1.3019 6.42212
lowerneck -10.0746 0.0982428 -12.0922
upperneck 27.2676 -1.31228 13.1253
head 10.4309 -0.5304 6.72575
rclavicle -6.95746e-015 -2.1419e-014
rhumerus -40.0157 -25.5774 -65.1512
rradius 30.5387
rwrist -14.4962
rhand -13.062 16.0492
rfingers 7.12502
rthumb 13.0334 -13.5236
lclavicle -6.95746e-015 -2.1419e-014
lhumerus -10.6387 17.1249 81.4564
lradius 26.2393
lwrist -10.3877
lhand -3.88031 31.9766
lfingers 7.12502
lthumb 21.8689 60.7608
rfemur -28.546 6.94237 10.7712
rtibia 37.952
rfoot -10.8557 1.44995
rtoes 8.44403
lfemur -17.9488 5.46064 -22.9245
ltibia 37.0953
lfoot -24.6179 17.7967
ltoes 9.44745
458
root 10.6006 17.7726 -14.2834 9.30668 -48.8245 -4.13522
lowerback 7.20155 -1.62747 -5.70237
upperback 2.53933 -2.54234 2.9712
thorax -1.01228 -1.32787 6.50877
lowerneck -10.4513 0.113629 -11.5437
upperneck 27.6271 -1.2602 12.6075
head 10.6325 -0.50275 6.4619
rclavicle -3.24267e-015 2.57426e-014
rhumerus -40.0461 -25.5624 -65.1636
rradius 30.595
rwrist -14.3062
rhand -13.0828 15.896
rfingers 7.12502
rthumb 13.0134 -13.6781
lclavicle -3.24267e-015 2.57426e-014
lhumerus -10.4494 17.4677 81.5734
lradius 26.2374
lwrist -10.8516
lhand -3.40963 32.0568
lfingers 7.12502
lthumb 22.3208 60.7876
rfemur -28.6698 6.83768 10.85
rtibia 38.1268
rfoot -10.7918 1.32426
rtoes 9.37533
lfemur -17.9465 5.18584 -22.9345
ltibia 37.0872
lfoot -24.8248 17.9828
ltoes 10.2458
459
root 10.6036 17.7745 -14.2794 9.66615 -48.4778 -4.32543
lowerback 7.37481 -1.84693 -5.67115
upperback 2.41946 -2.83928 3.07287
thorax -1.18347 -1.46708 6.63038
lowerneck -10.252 0.217844 -11.553
upperneck 27.4885 -1.11724 12.5952
head 10.5188 -0.443131 6.46125
rclavicle 1.00684e-013 -9.19379e-015
rhumerus -40.0527 -25.7504 -65.0182
rradius 30.5043
rwrist -13.5684
rhand -12.4413 16.0555
rfingers 7.12502
rthumb 13.6317 -13.4781
lclavicle 1.00684e-013 -9.19379e-015
lhumerus -10.3873 18.0374 81.6673
lradius 26.3256
lwrist -11.1534
lhand -3.50298 31.9865
lfingers 7.12502
lthumb 22.2312 60.7279
rfemur -28.9588 6.49469 11.1105
rtibia 38.3643
rfoot -10.7537 0.986552
rtoes 10.7086
lfemur -18.2322 5.12516 -22.7373
ltibia 37.0947
lfoot -24.8104 17.6342
ltoes 10.6997
460
root 10.5986 17.7763 -14.269 9.97186 -48.488 -4.60123
lowerback 7.41431 -1.87813 -5.57359
upperback 2.49763 -2.87625 3.09513
thorax -1.12228 -1.4906 6.60023
lowerneck -10.1421 0.235398 -11.8364
upperneck 27.2272 -1.12351 12.9805
head 10.3994 -0.431592 6.64154
rclavicle 3.14825e-014 -2.32578e-014
rhumerus -39.9726 -26.3948 -64.9407
rradius 30.3942
rwrist -12.4253
rhand -11.9484 16.4386
rfingers 7.12502
rthumb 14.1067 -13.0626
lclavicle 3.14825e-014 -2.32578e-014
lhumerus -10.013 18.5376 81.84
lradius 26.4036
lwrist -11.2047
lhand -3.68558 31.8308
lfingers 7.12502
lthumb 22.0559 60.5931
rfemur -29.1619 6.38372 11.3973
rtibia 38.6352
rfoot -10.7126 0.815356
rtoes 11.1071
lfemur -18.2949 5.22769 -22.5415
ltibia 37.0883
lfoot -24.8182 17.5637
ltoes 10.8165
461
root 10.5885 17.7784 -14.2598 9.98692 -48.4807 -4.42797
lowerback 7.46197 -1.87122 -5.86082
upperback 2.50929 -2.88994 3.08629
thorax -1.11932 -1.49901 6.75849
lowerneck -10.2298 0.21002 -11.969
upperneck 27.2079 -1.18043 13.2049
head 10.4178 -0.444576 6.7466
rclavicle -1.79652e-014 -7.7526e-015
rhumerus -39.9193 -26.4583 -65.101
rradius 30.5215
rwrist -12.2325
rhand -11.9327 16.588
rfingers 7.12502
rthumb 14.1219 -12.9121
lclavicle -1.79652e-014 -7.7526e-015
lhumerus -9.62445 18.5557 82.0462
lradius 26.4103
lwrist -11.0442
lhand -3.89702 31.8346
lfingers 7.12502
lthumb 21.8528 60.6207
rfemur -29.4 6.0789 11.3801
rtibia 38.9332
rfoot -10.6748 0.678762
rtoes 10.4326
lfemur -18.3774 5.35983 -22.672
ltibia 37.0568
lfoot -24.7704 17.4745
ltoes 10.7518
462
root 10.5782 17.7787 -14.2485 9.8687 -48.2938 -4.0456
lowerback 7.57565 -1.96671 -6.26909
upperback 2.41042 -3.05215 3.08645
thorax -1.23616 -1.57347 7.01298
lowerneck -9.98289 0.287927 -12.0664
upperneck 27.0241 -1.095 13.3323
head 10.2862 -0.405755 6.80491
rclavicle 6.07784e-014 5.86415e-015
rhumerus -39.8836 -25.9204 -65.3967
rradius 30.7703
rwrist -12.8798
rhand -11.789 16.5496
rfingers 7.12502
rthumb 14.2603 -12.9408
lclavicle 6.07784e-014 5.86415e-015
lhumerus -9.46037 18.1094 82.1797
lradius 26.3659
lwrist -10.5132
lhand -4.12305 31.8459
lfingers 7.12502
lthumb 21.6358 60.6571
rfemur -29.6389 5.64225 11.2153
rtibia 39.2509
rfoot -10.7026 0.504263
rtoes 10.1447
lfemur -18.4645 5.42967 -22.9423
ltibia 36.9717
lfoot -24.7009 17.2537
ltoes 10.4563
